<?xml version="1.0" encoding="UTF-8"?><!DOCTYPE svg PUBLIC "-//W3C//DTD SVG 1.1//EN" "http://www.w3.org/Graphics/SVG/1.1/DTD/svg11.dtd"><svg xmlns="http://www.w3.org/2000/svg" xmlns:xlink="http://www.w3.org/1999/xlink" version="1.1" id="Layer_1" x="0px" y="0px" viewBox="0 0 512 512" xml:space="preserve"><path fill="#FFF" d="M288.4 172.2s77.1 10.7 128.8 137.4c8.4 20.6 19.3 35.7 31.7 46.6 0 0-26.4 7.3-48.6-11.7 0 0 5.3 83.4-64.4 111.9 0 0 16.9-42.5-4.2-72.5 0 0-4.2 79.9-80.3 104.2 0 0 15.4-16.9 14.6-43.3 0 0-38.8 73.9-145.5 54.9l35.9-21.1s-78.3 6.3-91.9-10.6c0 0 109.8-57 114.1-122.5 4.2-65.5-21.1-191-21.1-191l38-54.1 110.9 26.8-18 45z"/><path fill="#D1D3D4" d="M451.9 358.8c-24.7-23.5-38.5-55.9-53.6-86.5-15.1-30.6-33.7-61.7-63.7-78.1-12.2-6.7-26.5-11.1-34.7-22.3l-4.2 2.2c45.2 39 80.4 89.4 101.5 145.3-15.8-30.2-42-54.7-73.2-68.5 11.4 4.9 18 16.8 23.4 28 10.2 21 19.6 43.7 17.1 66.9-2.2 20.6-13.6 38.9-24.6 56.4-7.2-34.7-25.6-66.9-51.9-90.7 17.4 42.2 5.3 91.3-16.7 131.2 7.3-26.4 5.6-55.3-4.7-80.7-9.9 93.8-65.1 100.8-84.7 105.7 17.2-13 28.9-33 31.9-54.4-4.7 16.1-42.1 49.4-84.5 32.5 36.2-18.5 61.3-55.7 67.6-95.7h-28.6c.7 18.2-3.4 35.4-15.3 50.1-4.6 5.6-11.3 13.7-17.1 18-23.3 16.9-42.1 32.8-67.4 46.6 22.8 10.3 54.4 15.1 85.1 13-6.1 13.2-12.1 15.1-26.5 17.4 47.7 12.8 101.9-3.2 135-39.9-.4 11.9-3.8 23.6-9.8 33.9 22.4-4.3 41.7-19.6 54.2-38.7 12.6-19 19.1-41.4 22.8-63.9 17.6 18.5 21.7 48.6 9.6 71.1 38.5-23.6 62.3-69.4 59.3-114.5 16.6 9.3 34.9 19 53.7 15.6z"/><path fill="#AF1925" d="M136.8 233.3c8.1.9 13.8 9.1 14.5 17.2.7 8.1-2.4 16-6 23.3-2.5 5.2-5.2 10.2-8.6 14.9-8.3 11.3-20.4 19.7-26.8 32.1-7.1 13.8-5.7 31.4 3.1 44.1 8.9 12.7 24.7 20.1 40.2 19 12.1-.8 23.5-6.4 32.6-14.3 9.2-7.9 16.2-18 22-28.6 3.1-5.7 5.9-11.6 8-17.7 4.8-13.6 7.4-44.2 2-63.5 0 0 22 18.7 16.6 41.9 0 0 26.9-31.6 21.6-59.1 0 0 9.6 9.5 9.8 22.2 0 0 33.5-24.2 10.8-62 0 0 5.8-2.1 12.1 3.3 0 0-28.5-63.9-89.2-37.5l9-10.5s-24.3 11.7-29 26.7c0 0-6.9-42.5 53.3-41.8l-9.6 7.7s29.1-15.8 59.7 9.7l-10.6 2.3s13.7 24.8 33.8 22 39.1-39.8 53.9-37.7c0 0-12.7-3.7-16.9 0 0 0 31.2-35.9 9.5-62.8S351 41.4 351 41.4s-36.4-2-42.8 49.4c-.7 5.4-2 10.8-7.4 11.5-3.2.4-6.4-1-9.1-2.8-3.7-2.5-6.9-5.9-8-10.2-1.5-5.9 1.2-11.9 4.4-17.1 5.1-8.3 11.7-15.7 16.1-24.4 4.4-8.7 6.3-19.5 1.6-28-.7 11.1-7.8 21.6-17.9 26.4-5 2.4-10.6 3.3-16 4.3-6 1.1-12.1 2.1-18.1 3.2-8.7 1.5-18 3.3-24.5 9.3-6.5 6-8.5 17.8-1.5 23.4 3-.1 3.5 5.1 1.6 7.5-1.8 2.3-5.1 2.8-8.1 2.8-7.2-.1-15.1-3.1-17.8-9.7-2.5-6.2.4-13.1.3-19.8-.1-8-4.7-15.7-11.2-20.4-6.5-4.7-14.7-6.7-22.8-6.5 6 12.9.5 29.1-10 38.8-3.6 3.3-7.7 6-11.5 9.1-19.2 15.5-29.5 40-31.8 64.6-1.6 17.1 1.1 36.1 13.5 48l6.8 32.5z"/><path fill="#D3374A" d="M225.5 83.6s-13.5-14.7 13-26.2 59.3-2.6 66.4-26.1c0 0 6.4 13.1-10.2 31.5 0 0-27.8 7.1-41.6 7.4-13.8.3-30.1 7.5-27.6 13.4z"/><path fill="#D3374A" d="M125.8 195.5s-11.4-50.2 14.6-77.1c26-26.9 68.2-60.5 44-76.1L170 40.1s15.2 23.1-21.5 47.8-36.3 97.4-22.7 107.6z"/><path fill="#8C0E1E" d="M149.1 263.7c-2.1 15.2-7.4 30-15.5 43.1-4 6.5-8.8 12.8-11.1 20.1-3.2 10.3-.7 22.2 6.5 30.2s18.8 11.8 29.3 9.4c14.3-3.3 24.1-16.4 30.2-29.7 17-37 14.4-82.4-6.7-117.2 23.4 16.5 41.9 39.8 52.7 66.3 4.5-10.5 8-21.5 10.4-32.7.8-4 1.6-8 1.4-12-.4-9.5-5.5-18-10.4-26.1 14.5 6.4 25.9 19.5 30.1 34.8 3.7-8.5 3.5-18.3.8-27.1-2.6-8.9-7.5-16.9-12.8-24.4 5.7-1.8 13-.5 18.2 2.6-3.5-14.9-19.5-25.6-34.6-23.2 4.4 1.9 7.3 7 6.5 11.8 3.9.5 8.1-.7 11.2-3.1-3.6 5.9-9.9 10-16.7 11.1 1.9 5.9-2.2 12.4-7.8 14.9s-12.2 1.7-18-.5c-2.7-1-5.4-2.3-8.3-2.7-4.7-.7-9.7 1.2-12.7 4.9-.1-8.1 2.3-16.3 6.7-23.1-10.9 1.2-20.6 10.1-22.8 20.8-5-4.8-11.4-7.6-17.1-11.6-9.2-6.6-16.1-16.5-18.7-27.5-2.6-11-.8-23.1 5.1-32.7 5.3-8.5 13.5-14.8 20.7-21.8 11.8-11.5 21.4-25.3 28-40.4 4.2-9.8.9-22.2-5.7-30.5 8.7 1.4 13 11.4 13.6 20.2.3 4.4.1 8.9 1 13.2 1.2 5.7 4.5 11.1 9.5 14.1 5 3.1 11.6 3.6 16.6.7 6.7-3.8 9.5-12.4 15.9-16.8 6.2-4.3 14.4-3.7 21.9-3.8 7.5 0 16.1-1.3 20.3-7.6.7-1.1 3.1-.8 3.8.4-1.9 3.9-3.8 7.8-5.7 11.8-1.1 2.3-2.2 4.6-2.1 7.2.1 2.7 1.7 5.2 3.5 7.2 5.2 5.6 13 8.6 20.6 7.9 7.6-.7 14.8-5 18.9-11.4 2.3-3.6 4.8-8.5 9.1-8.2-2.6 9-2.2 18.9 1 27.7 3.1 8.5 8.9 16.8 7.3 25.6-.7 4.1-.1 7.9-1.5 11.9 5.8 0 11.6.1 17.4.1-12.8 12.3-26.3 24.4-42.8 30.8-8.8 3.4-8.2 7.2-17.3 4.9-9.1-2.3-23.6-11.9-25.8-21.1 4.2-.1 4.5.5 8.7.4-5.2-8.8-15.8-12.7-25.8-15-10.1-2.3-23.6-.2-26.3-.6 1.4-2.3-.9-.9.5-3.2-12-2.1-22.1 1.1-33.1 6.5-7.1 3.5-14.1 10.5-15.8 18.3-1.2 5.4-2.3 8.9-.7 14.2 5.3-9 15.4-17 24.2-22.7-2.5 3.7-2.6 7-4.8 9.4 14.8-7.6 32.8-8.5 48.2-2.4 5.7 2.3 11.1 5.4 16.2 8.9 10.4 7 20.3 15.8 24.7 27.5-4.2-1.3-8.6-1.7-12.9-1 5.7 5.2 6.6 13.7 7.2 21.4.6 7.9 1 16.3-3.2 23-3.7 5.9-10.7 9.6-13.4 16.1.2-7.1-3.7-14.1-9.9-17.6-.2 19.7-9.2 39.2-24.1 52 2-12.9-7.3-24.5-15.9-34.2 6.1 10.9 5.3 23.5 3.1 35.7-4.3 23.7-15.2 46.2-31.1 64.3-9.1 10.3-20.4 19.5-33.9 21.9-19 3.5-39.6-8.8-45.5-27.1-1.4-4.4-2.1-9-2.6-13.7-1.2-12.2 2-24 9.5-33.6 4.3-5.5 7.5-10.7 12.8-15.3 9.2-8 15.8-19 18.6-30.9l1.2-.8z"/><path fill="#F99506" d="M105.4 263.3s24.5-33.5 61.9-18.5c0 0 11-5 11.2-17.3 0 0-1.4-24.2-51.2-7.7-36.9 12.3-21.9 43.5-21.9 43.5z"/><path fill="#252B3D" d="M245.8 182.4c-2.3 3-5.9 5-9.7 5.5 2.3 2 4.9 3.5 7.7 4.5-2.8 1.6-6.4.4-9.3-1-2.9-1.4-6.1-3.1-9.2-2.4 0 1.7.1 3.4.1 5.1 0 .8 0 1.6-.5 2.2-.5.6-1.2.7-1.9.9-1.7.5-3.3 1.2-4.8 2.1-.4.2-.7.5-.9.9-.2.5.1 1.1.4 1.5 1.8 2.6 4.8 4.4 7.9 4.8 3.1.4 6.4-.6 8.8-2.7-1.4 3.3-4.9 5.4-8.4 5.8-3.6.4-7.1-.7-10.3-2.4-1.5-.9-3-1.9-4.7-2.5-2.7-1.1-5.8-1.2-8.7-1.2 3.2-2.4 3.6-7 4.8-10.8 1.7-5.3 6-9.9 11.4-11.2 4.3-1 8.9.2 13.2 1.1 4.4 1 9.1 1.7 13.2 0l.9-.2z"/><circle fill="#FAC902" cx="224.3" cy="196.4" r="11.6"/><circle fill="#252B3D" cx="224.3" cy="196.4" r="6.4"/><circle fill="#FFF" cx="226.6" cy="191.5" r="3.2"/><path fill="#FAC902" d="M178.5 224.4s-2.7-20.1-30.4-18l6.9-2.4s-16.1-9.7-25.2-9.2c0 0-54.3 31.1-24.4 74.7 0 0-1.5-24.1 10.5-32.1v5.9c-.1-.1 30.1-33.4 62.6-18.9"/><path fill="#FFF" d="M105.9 258.1c-12.6-36.7 31.1-61.7 31.1-61.7.6 0 1.3 0 2 .1-3.3-1.1-6.6-1.9-9.2-1.7 0 0-54.3 31.1-24.4 74.7 0 0-.3-5.2.5-11.4z"/><path fill="#252B3D" d="M178.5 224.4c-.3-1.6-1-3.1-1.7-4.5-.4-.7-.7-1.4-1.2-2.1-.5-.7-.9-1.3-1.4-1.9l-.8-.9c-.3-.3-.6-.6-.9-.8l-.9-.8c-.3-.3-.6-.5-.9-.7-.6-.5-1.2-1-2-1.3-.7-.4-1.3-.8-2.1-1.1l-2.2-.9c-.7-.3-1.5-.4-2.3-.7-.8-.2-1.5-.4-2.3-.5l-2.3-.4c-.8-.1-1.6-.1-2.4-.1l-2.4-.1-4.8.3-8.3.5 7.8-2.9 6.9-2.6-.3 2.6c-1.9-1.1-3.9-2.1-5.9-3-2-.9-4-1.9-6.1-2.7-1-.4-2.1-.8-3.1-1.1-1-.3-2.1-.7-3.1-.9-.5-.1-1-.3-1.6-.4-.5-.1-1-.2-1.6-.3l-1.5-.2h-1.5l.9-.3c-1.5.9-3 2-4.5 3-1.5 1.1-2.9 2.2-4.3 3.3-1.4 1.2-2.8 2.4-4.1 3.6-1.3 1.2-2.6 2.5-3.9 3.8-1.2 1.3-2.4 2.7-3.6 4.1-1.1 1.4-2.2 2.8-3.2 4.3-.5.7-1 1.5-1.5 2.2-.5.8-1 1.5-1.4 2.3-.9 1.5-1.6 3.2-2.4 4.8l-1 2.5-.8 2.5c-.4 1.7-.9 3.4-1 5.2-.1.9-.2 1.7-.3 2.6 0 .9-.1 1.7-.1 2.6l.1 2.6c.1.9.2 1.7.3 2.6.1.9.3 1.7.5 2.6.2.9.3 1.7.6 2.6l.8 2.5c.3.8.7 1.6 1 2.5.6 1.7 1.5 3.2 2.3 4.8.8 1.6 1.9 3.1 2.8 4.6l-4.2 1.4c-.1-1.6-.1-3.1 0-4.6 0-1.5.1-3 .3-4.5.1-1.5.4-3 .6-4.5l.4-2.2c.1-.7.4-1.5.5-2.2.2-.7.4-1.5.6-2.2.3-.7.4-1.5.8-2.2l.9-2.2c.3-.7.7-1.4 1.1-2.1.3-.7.8-1.4 1.3-2l.7-1c.2-.3.5-.6.8-.9.6-.6 1-1.3 1.7-1.7l2-1.5 3.1-2.4-.1 4.1-.1 5.9-3.3-1.3c1.1-1.1 2.1-2.1 3.3-3.1 1.1-1 2.2-2 3.4-2.9 2.3-1.9 4.7-3.6 7.2-5.2s5-3.1 7.7-4.4c1.3-.7 2.7-1.3 4-1.9 1.4-.6 2.8-1.1 4.1-1.6 5.6-1.8 11.6-2.9 17.5-2.7.7 0 1.5.1 2.2.1l2.2.3c.7.1 1.4.3 2.2.4.7.1 1.4.3 2.1.5l2.1.6 2.1.7c1.9.2 3.2.9 4.5 1.5-1.4-.5-2.7-1-4.1-1.4l-2.1-.6-2.1-.4c-.7-.2-1.4-.2-2.1-.3-.7-.1-1.4-.2-2.1-.2l-2.1-.1h-2.1c-5.7.1-11.4 1.5-16.6 3.6-1.3.5-2.6 1.1-3.9 1.7-1.3.6-2.5 1.3-3.8 2-2.5 1.4-4.9 2.9-7.2 4.6-2.3 1.7-4.6 3.4-6.7 5.3-1.1.9-2.1 1.9-3.2 2.9-1 1-2 2-2.9 3L114 248l-.1-4.8-.1-5.9 3.1 1.6-1.5 1.2c-.5.4-.9 1-1.3 1.4-.2.2-.4.5-.6.7l-.5.8c-.4.6-.8 1.1-1 1.7l-.9 1.8-.7 1.9c-.3.6-.4 1.3-.6 2-.2.7-.4 1.3-.5 2-.1.7-.3 1.4-.4 2l-.4 2.1c-.2 1.4-.4 2.8-.5 4.2-.1 1.4-.2 2.8-.2 4.2v4.2l.5 9-4.7-7.6c-1-1.6-2.1-3.2-3.1-4.9-.9-1.7-1.9-3.4-2.6-5.2-.4-.9-.8-1.8-1.1-2.7l-.9-2.8c-.3-.9-.5-1.9-.7-2.9-.2-1-.5-1.9-.6-2.9-.1-1-.3-2-.4-2.9l-.1-3c-.1-1 .1-2 .1-3s.2-2 .3-2.9c.2-2 .7-3.9 1.2-5.8l.9-2.8 1.1-2.7c.8-1.8 1.6-3.6 2.6-5.2.5-.9 1-1.7 1.5-2.5s1-1.6 1.6-2.4c1.1-1.6 2.3-3.1 3.5-4.6 1.2-1.5 2.5-2.9 3.9-4.3 1.3-1.4 2.7-2.7 4.2-4 1.4-1.3 2.9-2.5 4.4-3.7 1.5-1.2 3-2.3 4.6-3.4 1.6-1.1 3.2-2.1 4.9-3.1l.5-.3h.4l1.9.1c.6.1 1.2.2 1.8.2.6.1 1.2.2 1.8.4.6.1 1.2.3 1.7.5 1.1.3 2.2.7 3.3 1.1 1.1.4 2.2.8 3.2 1.3 2.1.9 4.2 1.9 6.2 3s4 2.2 6 3.4l2.7 1.6-2.9 1-7 2.3-.5-2.5h5l2.5.2c.8.1 1.7.1 2.5.3l2.5.5c.8.1 1.6.4 2.4.7.8.3 1.6.5 2.4.9l2.2 1.1c.7.4 1.4.9 2.1 1.3.7.4 1.3 1 2 1.5.3.3.6.5.9.8l.8.9c.3.3.6.6.8.9l.7 1c.5.6.9 1.4 1.3 2.1.4.7.7 1.5 1.1 2.2.6 1.9 1.1 3.5 1.3 5.1z"/><path fill="#252B3D" d="M180.1 227.4c-.1-1.4-.5-2.5-.9-3.6-.8-.2-1.7-.4-2.5-.5-.5 0-1-.1-1.4-.3.4.5.7 1.1.9 1.7.4.9.7 2 .8 2.8 0 1.6-.3 3.3-.8 4.8-.5 1.6-1.2 3.1-2.1 4.5-.9 1.4-2 2.7-3.3 3.8-.6.6-1.3 1.1-2 1.6-.3.2-.7.5-1.1.7l-.6.3c-1.2-.4-2.4-.9-3.6-1.2-1.4-.4-2.8-.9-4.3-1.1-1.4-.3-2.9-.6-4.4-.8-1.5-.2-3-.3-4.4-.4-1.5 0-3-.1-4.5.1-1.5 0-3 .3-4.4.4-1.5.3-2.9.5-4.3.9-1.4.3-2.8.8-4.2 1.3l-2.1.8-2 .9c-1.3.6-2.7 1.2-3.9 2-1.3.7-2.5 1.5-3.8 2.3-1.2.8-2.4 1.7-3.6 2.5-2.3 1.8-4.5 3.7-6.6 5.8-1.6 1.6-3.1 3.3-4.4 5.1v.2c1.5-1.7 3.2-3.3 4.9-4.9 2.2-1.9 4.4-3.7 6.8-5.3 1.2-.8 2.4-1.6 3.6-2.3 1.2-.7 2.5-1.4 3.8-2l3.9-1.8 2-.8 2-.7c1.4-.4 2.7-.8 4.1-1.1 1.4-.3 2.8-.5 4.2-.7 1.4-.1 2.8-.3 4.2-.3 1.4-.1 2.8 0 4.2.1 1.4.1 2.8.2 4.2.5l2.1.4c.7.1 1.4.3 2.1.5 1.4.3 2.7.7 4.1 1.1 1.3.4 2.7 1 4 1.4l.6.2.5-.2c.5-.2.9-.5 1.3-.7.4-.2.8-.5 1.2-.8.8-.5 1.6-1.1 2.3-1.8 1.5-1.3 2.8-2.7 3.9-4.3 1.1-1.6 2-3.4 2.5-5.3.6-1.9.9-3.8.9-5.8h.1z"/><g fill="#252B3D"><path d="M138.3 211.6c-1.8-.2-3.6-.4-5.4-.4-.8 0-1.6 0-2.4.2-.6.1-1.1.4-1.7.7-1.2.7-2.4 1.5-3.1 2.8-.6 1.2-.6 2.9.3 3.9.7.8 1.7 1.1 2.7 1.1 1 0 2-.4 2.9-.8 1.1-.5 2.4-1.5 2.2-2.7-.1-.5-.4-1-.5-1.5-.1-.5.1-1.2.7-1.3l4.3-2z"/><path d="M136.1 215.6s.1.3.1.7c0 .5-.1 1.1-.5 1.8s-.9 1.3-1.7 1.9c-.7.6-1.6 1.1-2.5 1.5-1.9.7-3.9.7-5.4.2-.7-.2-1.4-.5-1.8-.7-.4-.2-.7-.4-.7-.4s.1.2.5.6c.3.4.9.9 1.6 1.3.8.4 1.7.8 2.9.9.6 0 1.1.1 1.7 0 .6-.1 1.2-.2 1.7-.4 1.1-.4 2.1-1.1 2.9-1.9.8-.8 1.3-1.7 1.6-2.6.2-.9.2-1.7 0-2.1-.1-.2-.2-.4-.3-.5-.1-.2-.1-.3-.1-.3z"/></g><path fill="#D3374A" d="M306.8 95.3l5.7-19.8c1.6-5.4 3.2-10.9 6.5-15.4 6.5-8.7 21.4-16.7 32.2-18.7-2.3.2-6.9 7.8-7.5 10-1.6 7.1-1 14.6 1.5 21.3-7.9-.7-16 2.9-20.8 9.2-2.4 3.2-4 7-6.6 10.1-2.6 3.1-6.8 5.4-10.6 4.1"/><path fill="#252B3D" d="M360.7 143.2l-2.2-.3-2.2-.2c-1.5-.1-2.9-.2-4.4-.3h-.1c1.2-1.7 2.3-3.5 3.4-5.4 2.6-4.4 4.8-9 6.5-13.9 1.7-4.9 2.9-10.1 3.1-15.4.2-5.4-.6-10.9-2.5-16-1-2.6-2.3-5-3.8-7.3l-1.2-1.7-1.1-1.5-1.1-1.5-.6-.7-.5-.7c-1.2-1.7-2.4-3.7-3.4-5.6-1-2-1.8-3.9-2.4-6-1.1-4-1.3-8.1-.2-12 .5-1.9 1.3-3.7 2.4-5.4.5-.8 1.1-1.7 1.8-2.4.3-.4.7-.7 1-1.1l.5-.5.4-.3 8.7-7.8-11.3-.5h-1.9c-.6 0-1.1.1-1.7.1-1.1.1-2.2.2-3.3.4-2.2.4-4.3.9-6.3 1.6-4.1 1.4-8 3.4-11.6 5.9-7.1 5-12.5 12.1-16 19.7-1.8 3.8-3.2 7.7-4.3 11.7-1 4-2 8-2.5 12l-.4 2.9c-.1.8-.3 1.6-.4 2.4-.3 1.5-.9 2.7-1.3 3.2-.2.3-.4.3-.6.4-.1.1-.2.1-.4.1h-.7-.5c-.2 0-.5-.1-.8-.1-.6-.1-1.2-.4-1.8-.6-.6-.3-1.3-.7-1.9-1.1-.1-.1-.8-.5-1-.7l-.9-.7c-1.2-1-2.2-2.1-2.9-3.2-.4-.6-.7-1.1-.9-1.7l-.3-.9-.1-.2-.2-.7c-.1-.4-.1-.5-.1-.8v-1c0-.6.1-1.3.2-2 .5-2.8 2.1-5.9 3.9-8.9 2-3.2 4.1-6.1 6.4-9.3 2.3-3.1 4.6-6.4 6.8-9.9 1.1-1.8 2.1-3.5 3.1-5.5l.6-1.3c.2-.4.5-1 .7-1.5.5-1.1.8-2 1.2-3.1 1.4-4.1 2.3-8.5 2.3-13.1s-1.1-9.4-3.4-13.6L301.9 2l-1 17.5c-.2 4.2-1.6 8.3-3.8 12-2.2 3.7-5.3 6.8-8.9 9-.4.3-.9.5-1.4.8l-.7.4s-.2.1-.1.1l-.2.1-.4.2-3 1.2c-2.1.7-4.4 1.2-6.8 1.7-2.4.5-4.9.9-7.4 1.3l-7.5 1.3-7.5 1.3c-2.5.4-5.1.9-7.7 1.5-5.2 1.2-10.7 2.8-15.6 6.2-1.2.8-2.4 1.8-3.5 2.8l-.3.3-.2.2-.3.3-.9 1c-.5.6-1 1.2-1.5 1.9-1.8 2.6-3.1 5.5-3.8 8.6-.7 3.1-.8 6.3 0 9.6s2.8 6.6 5.6 8.7l1.1.4v.6c0 .2-.1.3-.1.3l-.2.2v-.1c-.1.1-.6.4-1.2.6-.6.2-1.4.3-2.3.3H220.2l-.6-.1c-1.8-.1-3.7-.6-5.4-1.2-1.7-.6-3.2-1.5-4.4-2.5-.6-.5-1.1-1.1-1.5-1.7-.2-.3-.4-.6-.5-1l-.1-.2-.1-.1-.3-.7c-.1-.3-.1-.4-.2-.6 0-.2-.1-.3-.1-.5-.1-.4-.1-.8-.2-1.2-.1-.8-.1-1.8 0-2.7.1-1.9.4-4.1.7-6.4.3-2.3.6-4.9.4-7.4-.2-2.7-.8-5.3-1.7-7.7-1.8-4.9-4.9-9.1-8.7-12.5-1-.8-1.9-1.6-3-2.4-.8-.6-2.2-1.4-3.2-2-2.2-1.2-4.5-2.1-6.9-2.9-4.7-1.4-9.6-2-14.5-1.9l-5.7.1 2.4 5.1c2.8 5.9 2.9 13.1.7 19.7-1.1 3.3-2.6 6.5-4.6 9.3-1 1.4-2.1 2.8-3.3 4.1-.6.6-1.2 1.3-1.8 1.8-.7.7-1.3 1.2-2 1.8-2.8 2.3-5.9 4.5-9 7-1.6 1.4-2.9 2.5-4.4 3.9-1.4 1.4-2.9 2.8-4.2 4.3-2.7 2.9-5 6.1-7.2 9.3-2.1 3.3-4.1 6.7-5.8 10.2-1.8 3.5-3.2 7.1-4.6 10.8-1.3 3.7-2.4 7.4-3.3 11.2-.5 1.9-.9 3.8-1.2 5.7-.4 1.9-.6 3.8-.9 5.8-.3 1.9-.4 3.8-.6 5.8-.1 1.9-.2 3.9-.3 5.8-.1 7.8.7 15.6 3 23.1 1.8 5.8 4.5 11.3 8.3 16 .4-.7 1.1-1.3 1.9-1.6-3.4-4.5-5.8-9.8-7.2-15.2-1.9-7.2-2.5-14.7-2.1-22.1.1-1.9.2-3.7.4-5.6.2-1.8.4-3.7.8-5.5.3-1.8.6-3.7 1-5.5.4-1.8.8-3.6 1.3-5.4.9-3.6 2.1-7.2 3.4-10.6 1.4-3.5 2.8-6.9 4.6-10.1 1.7-3.3 3.7-6.4 5.7-9.5 2.2-3 4.4-5.9 7-8.5 1.2-1.4 2.6-2.6 3.8-3.8 1.3-1.2 3-2.5 4.2-3.6 2.9-2.3 6.1-4.4 9.2-6.9.7-.6 1.6-1.3 2.3-1.9.8-.7 1.5-1.4 2.3-2.2 1.4-1.5 2.8-3.1 4-4.7 2.4-3.3 4.4-7 5.7-11 1.4-3.9 2.2-8.1 2.1-12.4 0-2.3-.3-4.7-.9-7 2.4.3 4.7.7 6.9 1.5 1.9.6 3.8 1.4 5.5 2.4.9.5 1.5.9 2.5 1.6.8.5 1.5 1.2 2.2 1.8 2.9 2.6 5.1 5.9 6.4 9.4.6 1.8 1 3.6 1.1 5.4.1 1.9-.1 3.8-.4 6-.3 2.1-.7 4.4-.9 7-.1 1.3-.1 2.6 0 4 0 .7.2 1.4.3 2.1 0 .3.2.8.3 1.2.1.4.2.8.3 1.1l.3.8.1.3.1.1.1.3.2.5c.3.7.7 1.3 1.1 2 .8 1.2 1.8 2.4 2.9 3.4 2.1 2 4.6 3.3 7.1 4.3s5 1.5 7.7 1.8c2.4.2 5.2.4 8.3-.5 1.5-.4 3.2-1.1 4.7-2.5l.6-.6.3-.3c.4-.5.8-1 1-1.5.5-1 .8-1.9 1-2.8.3-1.8.4-3.6-.3-5.7-.4-1-.9-2.2-2.1-3.3-.6-.6-1.5-1.1-2.4-1.4-.8-.9-1.4-2-1.7-3.3-.4-1.6-.3-3.5.1-5.4.4-1.9 1.3-3.7 2.4-5.2.3-.4.6-.7.9-1.1l.4-.4.3-.3.1-.1.1-.1c.8-.7 1.6-1.3 2.5-1.9 3.5-2.3 7.8-3.7 12.5-4.7 2.3-.5 4.7-.9 7.2-1.4l7.5-1.3 7.5-1.3c2.5-.4 5-.8 7.6-1.3 2.6-.5 5.3-1.1 7.9-1.9 1.3-.4 2.7-.9 4.1-1.5l.4-.2.2-.1.3-.2 1-.5c.7-.3 1.3-.7 1.9-1.1 2.9-1.8 5.6-3.9 7.9-6.4-.1.2-.1.3-.2.5-.2.4-.3.7-.5 1.1l-.6 1.3c-.7 1.4-1.7 3.1-2.6 4.6-1.9 3.1-4.1 6.1-6.4 9.3-2.2 3.1-4.7 6.4-6.8 9.8-2.2 3.6-4.3 7.5-5.3 12.4-.2 1.2-.4 2.5-.4 3.7v1.9c0 .6.2 1.6.3 2.1l.2.7v.2l.1.3v.1l.1.5c.2.6.4 1.3.7 1.9.5 1.2 1.1 2.4 1.8 3.4 1.4 2.1 3.1 3.9 4.9 5.3.5.4.9.7 1.4 1.1.6.4.7.5 1.4.9 1 .6 2 1.2 3.2 1.7 1.1.5 2.4 1 3.7 1.3.7.1 1.4.3 2.1.3.7.1 1.4.1 2.4 0H301.4l1.2-.2c.8-.2 1.6-.4 2.4-.8 1.6-.7 3-1.9 4-3.1 2-2.5 2.8-5.1 3.3-7.3.3-1.1.4-2.2.6-3.3l.4-2.8c.4-3.7 1.2-7.3 2.1-10.8 1-3.5 2.2-6.9 3.7-10.1 3-6.5 7.3-12.2 12.8-16.1 2.6-1.9 5.5-3.4 8.6-4.5-.7 1.4-1.2 2.9-1.6 4.5-1.6 5.6-1.2 11.5.3 16.8.8 2.7 1.8 5.2 3 7.6 1.3 2.4 2.6 4.6 4.2 6.8.4.6.8 1.1 1.1 1.5l1.1 1.4 1.1 1.4.9 1.3c1.2 1.8 2.2 3.6 3 5.6 1.5 3.9 2.2 8.2 2.1 12.5-.2 4.3-1.1 8.8-2.5 13.1-1.4 4.3-3.4 8.5-5.6 12.5-1.1 2-2.4 4-3.7 5.9-1.3 1.9-2.7 3.9-4.1 5.5l-8.1 9.8 12.4-3.4.6-.2.8-.1c.5-.1 1.1-.1 1.7-.2-.4.3-.9.6-1.3 1-3.7 3-7.1 6.1-10.4 9.3-3.3 3.2-6.5 6.3-9.8 9.3-3.3 2.9-6.7 5.7-10.3 7.8-1.8 1.1-3.7 2-5.6 2.6-1 .4-1.8.6-2.8.8l-1.6.3H304.7l-.7.1c-3.9.3-7.9-.6-11.5-2.5-3.7-1.8-7-4.5-10-7.6-1.5-1.5-2.9-3.2-4.3-4.9-.5-.7-1.1-1.4-1.6-2.2l6.6-1.5 6-1.4-5-3.3c-1.1-.7-2.1-1.5-3.2-2.2-1.1-.7-2.2-1.4-3.3-2-1.1-.6-2.2-1.2-3.4-1.8-1.1-.6-2.3-1.1-3.5-1.6-4.7-2-9.6-3.6-14.6-4.6-5-1-10.1-1.5-15.2-1.5-2.6 0-5.1.1-7.6.4h-.3l.6-.5 4.1-3.4-5.2.1-4.9.1c-1.6.1-3.3.2-4.9.3-1.6.1-3.3.4-4.9.5-1.6.2-3.3.5-4.9.8-1.6.4-3.3.7-4.9 1.2-1.6.5-3.2.9-4.8 1.5-1.6.5-3.1 1.3-4.6 2-.8.3-1.5.8-2.2 1.2-.7.4-1.5.8-2.2 1.3-1.4.9-2.8 1.9-4.1 3l-1.9 1.7-1.8 1.9c-.6.6-1.1 1.3-1.6 2l-1.5 2.1c-.5.7-.9 1.5-1.3 2.2-.4.8-.8 1.5-1.1 2.3-.7 1.6-1.3 3.1-1.8 4.8-.5 1.6-.8 3.3-1.1 4.9-.3 1.7-.4 3.4-.5 5 0 1.7 0 3.3.2 5.1l.9 6.3 2-6.1c1-3 2.6-5.7 4.7-8.2 2-2.5 4.4-4.8 7-6.9 2.5-2.1 5.2-4 8-5.8.5-.3 1-.6 1.4-.9l-3.6 4.2-4.2 4.8 5.9-2.5c2-.9 4.1-1.7 6.2-2.4 2.1-.7 4.2-1.4 6.4-1.9 2.1-.5 4.3-1 6.5-1.3 2.2-.3 4.4-.5 6.6-.6 8.8-.3 17.6 1.6 25.5 5.4 7.9 3.8 14.9 9.4 20.8 16 3 3.3 5.7 6.8 8.1 10.4 1 1.5 2 3.1 2.9 4.7-1-.2-2-.4-3.1-.5-.7 0-1.3 0-2 .1-.3 0-.7.1-1 .1-.4.1-.6.1-1.2.3l-2.9.9 1.5 2.8c.7 1.2 1.3 2.4 2 3.7.6 1.3 1.2 2.5 1.7 3.8.5 1.3 1 2.6 1.4 3.9.5 1.3.8 2.6 1.1 3.9.3 1.3.5 2.7.7 4 .1 1.3.3 2.7.3 4v2c0 .7 0 1.3-.1 2l-.2 2-.3 2c-.3 1.3-.6 2.6-1 3.9-.4 1.3-.9 2.5-1.4 3.8-1 2.5-2.3 4.9-3.8 7.1-1.5 2.3-3.2 4.4-5 6.4-.4.4-.9.8-1.3 1.3v-.1c-.1-.6-.3-1.1-.4-1.7-.2-.5-.3-1.1-.5-1.6-.4-1.1-.8-2.1-1.3-3.2-.2-.5-.5-1-.7-1.5-.3-.5-.5-1-.8-1.5-.5-1-1.1-1.9-1.7-2.9-.6-.9-1.3-1.9-2-2.7-.3-.4-.7-.9-1.1-1.3-.4-.5-.7-.8-1.2-1.4l-7.8-8.2 1.5 11.5c.2 1.2.4 2.4.4 3.6.1 1.2.1 2.4.1 3.7-.1 1.2-.1 2.5-.3 3.7-.1 1.2-.4 2.5-.6 3.7-.9 4.9-2.5 9.8-4.6 14.6-2 4.7-4.5 9.3-7.3 13.8-1 1.6-2 3.1-3.1 4.7l-.3-1.5-.7-2.9-.8-2.9c-.3-1-.6-1.9-.9-2.9-.3-1-.6-1.9-1-2.9l-1.1-2.8c-.4-.9-.8-1.8-1.2-2.8-.4-.9-.9-1.8-1.3-2.7-.5-.9-.9-1.8-1.5-2.7-1-1.8-2.1-3.5-3.3-5.2-.6-.8-1.2-1.7-1.9-2.5-.3-.4-.7-.8-1-1.2-.4-.4-.7-.8-1.2-1.3l-11.3-11.6 4.2 15.8c1.8 6.7 2.6 13.8 2.8 21 .2 7.2-.1 14.5-.9 21.6-.4 3.6-1 7.2-1.7 10.6-.2.9-.4 1.8-.6 2.6l-.6 2.4-.8 2.7-.4 1.2-.5 1.3c-2.5 6.7-5.8 13.2-9.4 19.4-3.6 6.2-7.8 12.1-12.6 17.3-1.2 1.3-2.5 2.6-3.7 3.7-.6.6-1.4 1.2-2 1.8-.6.5-1.3 1.1-2 1.7-2.7 2.2-5.6 4.2-8.7 5.9-3.1 1.7-6.3 3.1-9.5 4.1-1.7.5-3.3 1-5 1.3-.9.2-1.7.3-2.5.4-.8.1-1.8.2-2.7.3-6.7.5-13.7-.7-20.1-3.4-6.3-2.7-12.1-7-16.3-12.3-4.3-5.4-7-12-8.1-18.9-1.1-6.9-.4-14.1 2.1-20.5 2.5-6.6 6.9-12.3 11.9-17.7 4.9-5.4 10.3-10.7 14.9-16.9 4.6-6.2 7.8-13 10.8-19.9 1.5-3.5 2.8-7.1 3.5-10.8.8-3.8 1-7.7.2-11.5-.5-2.5-1.4-4.9-2.7-7-.6-.1-1.3-.1-2.1-.2 1.4 2.3 2.4 4.9 2.8 7.6.5 3.5.2 7.1-.6 10.6s-2.2 6.9-3.7 10.2c-3.2 6.6-6.6 13.2-11.1 18.8-4.5 5.7-10 10.6-15.2 16-2.6 2.7-5.2 5.5-7.5 8.6-1.1 1.6-2.2 3.2-3.2 4.9l-.7 1.3-.2.4-.2.3-.3.6c-.4.8-.8 1.6-1.2 2.6-3.1 7.4-4 15.4-3 23.3 1 7.8 4 15.5 8.8 21.8 4.9 6.4 11.3 11.4 18.6 14.7 7.3 3.3 15.2 4.9 23.4 4.4 1-.1 1.8-.1 2.9-.3 1-.1 2.1-.3 3-.5 2-.3 3.9-.9 5.8-1.4 3.8-1.2 7.5-2.7 10.9-4.6 3.5-1.9 6.8-4 9.9-6.5.8-.6 1.5-1.2 2.3-1.9.7-.6 1.4-1.2 2.1-1.9 1.5-1.4 2.8-2.7 4.2-4.1 5.3-5.7 9.9-12 13.8-18.5 3.9-6.6 7.4-13.3 10.2-20.6l.5-1.4.5-1.5.8-2.7.8-2.9c.2-1 .4-1.9.6-2.9.8-3.8 1.4-7.6 1.9-11.4.9-7.6 1.3-15.2 1.1-22.9 0-.7 0-1.5-.1-2.2l.6 1.4c.3.8.6 1.7.9 2.6.3.8.6 1.7.8 2.6l.8 2.6.6 2.6c.2.9.4 1.8.5 2.7l.5 2.7c.2.9.2 1.8.3 2.7l.3 2.7 1.1 9.9 6.3-7.5c1-1.2 1.8-2.2 2.7-3.4.8-1.1 1.6-2.3 2.4-3.4 1.6-2.3 3.1-4.6 4.5-7 2.9-4.8 5.5-9.7 7.6-14.9 2.2-5.2 3.9-10.6 4.9-16.3.2-1.2.4-2.5.5-3.7.2.4.3.8.5 1.3.2.4.3.9.4 1.3.1.4.3.9.4 1.3l.3 1.3.2 1.3c.2.9.2 1.8.3 2.7l.7 6.3 4.7-3.6c1.4-1.1 2.5-2.1 3.6-3.1 1.1-1.1 2.2-2.2 3.2-3.3 2-2.3 3.9-4.8 5.5-7.4 1.6-2.6 3-5.4 4.2-8.3.6-1.4 1.1-2.9 1.5-4.4.4-1.5.8-3 1-4.5l.3-2.3.2-2.3c.1-.8 0-1.6.1-2.3v-2.3c0-1.6-.2-3.1-.4-4.6-.3-1.5-.5-3-.9-4.5s-.8-3-1.3-4.4c-.5-1.5-1.1-2.8-1.7-4.2-.6-1.4-1.3-2.7-2-4.1-.1-.1-.1-.2-.2-.3l1.5.3c.4.1.9.3 1.3.4l1.2.6c.8.4 1.6 1 2.3 1.6l8.2 6.4-4.4-9.2c-1.1-2.2-2.2-4.2-3.4-6.2-1.2-2-2.5-3.9-3.8-5.8-2.7-3.8-5.6-7.4-8.8-10.7-6.4-6.7-13.8-12.5-22.3-16.4-8.4-3.9-17.8-5.8-27.1-5.3-4.6.2-9.2.9-13.7 2.1-2.2.6-4.4 1.2-6.6 2-.3.1-.5.2-.8.3l5.1-5.9 4.6-5.4-6.4 3.2c-1.6.8-3 1.6-4.5 2.4-1.5.9-2.9 1.7-4.4 2.7-2.9 1.9-5.6 3.8-8.3 6-2.6 2.2-5.2 4.6-7.4 7.3-.9 1.1-1.7 2.3-2.5 3.5.1-1.1.2-2.2.4-3.4.3-1.5.6-3.1 1-4.6.4-1.5 1-2.9 1.6-4.4.3-.7.7-1.4 1-2.1.4-.7.8-1.3 1.2-2 .5-.6.9-1.3 1.4-1.9l1.5-1.8 1.6-1.7 1.7-1.5c1.2-1 2.5-1.9 3.8-2.7.6-.4 1.3-.8 2-1.2.7-.4 1.4-.8 2.1-1.1 1.4-.6 2.9-1.3 4.4-1.8 1.5-.6 3-1 4.5-1.4 1.5-.4 3.1-.7 4.6-1 1.6-.2 3.1-.5 4.7-.7 1.6-.1 3.2-.4 4.8-.4 1.4-.1 2.8-.1 4.2-.2l-2.1 1.7-7 5.4 8.7-2c1.1-.2 2.3-.4 3.5-.6 1.2-.2 2.4-.3 3.6-.4 2.4-.2 4.8-.2 7.2-.2 4.8.1 9.6.7 14.3 1.8 4.7 1.1 9.2 2.6 13.6 4.6 1.1.5 2.2 1 3.2 1.6 1.1.6 2.1 1.1 3.1 1.8.3.2.6.4.9.5l-4.5.9-3.7.7 1.8 3.3c1.2 2.2 2.5 4.1 3.9 6 1.4 1.9 2.9 3.7 4.6 5.5 3.3 3.5 7 6.7 11.4 9 4.4 2.4 9.6 3.8 14.8 3.4l2.1-.2 1.7-.3c1.3-.3 2.6-.6 3.8-1 2.4-.8 4.7-1.8 6.8-3 4.3-2.4 8.1-5.4 11.6-8.4 3.5-3.1 6.8-6.2 10.1-9.3 6.6-6.1 13.3-12 20.9-15.4l12.7-5.7-13.3-1.6zM226.1 89.8zm.5.5l1.4.5c-.4.1-1-.2-1.4-.5z"/><path fill="#252B3D" d="M453.4 351.1c-7.4-6.4-13.7-14.1-19.1-22.5-2.7-4.2-5.1-8.6-7.4-13.1-1.1-2.3-2.1-4.4-3.2-6.9l-3.2-7.2c-1.1-2.4-2.1-4.9-3.3-7.3l-3.4-7.2c-1.1-2.4-2.4-4.8-3.6-7.2-1.2-2.4-2.4-4.8-3.7-7.1l-3.9-7c-1.3-2.3-2.7-4.6-4.1-6.9l-2.1-3.4-2.2-3.4c-1.5-2.2-2.9-4.5-4.4-6.7l-4.6-6.6-4.9-6.4c-3.3-4.2-6.7-8.4-10.3-12.4-3.6-4-7.3-7.9-11.2-11.6-3.9-3.8-7.9-7.3-12.1-10.8-4.2-3.4-8.5-6.7-13-9.7-3.9-2.6-7.9-5.1-12-7.4-2.2 2.8-5.3 4.9-8.8 5.8.8.4 1.6.9 2.4 1.3 4.4 2.5 8.7 5.2 12.9 8.2 4.2 2.9 8.1 6.1 12 9.4 3.8 3.4 7.6 6.8 11.2 10.5 3.6 3.6 7 7.4 10.4 11.3 3.4 3.9 6.5 7.9 9.6 12l4.5 6.2 4.3 6.4c1.5 2.1 2.8 4.3 4.1 6.5l2 3.3 1.9 3.3c1.3 2.2 2.6 4.4 3.8 6.7l3.6 6.8c1.2 2.3 2.3 4.6 3.5 6.9 1.1 2.3 2.3 4.6 3.3 7l3.2 7.1c1.1 2.3 2 4.8 3 7.1l3 7.3c1 2.4 2.1 5 3.3 7.5 2.3 5 4.9 9.8 7.8 14.5 3.2 5.2 6.8 10.2 10.8 14.9-3.1-.2-6.2-.6-9.2-1.3-3.7-.9-7.2-2.2-10.6-3.9-.8-.5-1.7-.9-2.5-1.4l-2.4-1.5c-.8-.5-1.5-1.1-2.3-1.6-.8-.6-1.5-1.2-2.2-1.8l-12.4-10 .7 15.8c0 1.1.1 2.5.1 3.8 0 1.3 0 2.7-.1 4.1-.1 2.7-.3 5.4-.6 8.2-.6 5.4-1.4 10.8-2.6 16.2-2.4 10.6-6 20.9-11 30.4-5 9.4-11.5 18-19.3 25.1-3.7 3.4-7.6 6.4-11.8 9 .1-.7.3-1.4.4-2 1.2-6.6 1.8-13.4 1.7-20.2-.1-6.8-1-13.8-2.9-20.6l-.8-2.5-.9-2.5c-.6-1.7-1.3-3.3-2.1-4.9-.8-1.6-1.6-3.2-2.5-4.8-.8-1.6-1.9-3.1-2.9-4.6l-12.1-18.9-2.1 23-.2 1.8-.2 2c-.2 1.3-.4 2.7-.6 4-.5 2.7-1 5.4-1.6 8-1.3 5.3-2.9 10.6-4.8 15.7-3.8 10.3-9 20-15.4 28.7s-14.1 16.4-23 22.6c-3.6 2.5-7.4 4.8-11.3 6.9.5-1.1.9-2.3 1.3-3.4 1.4-3.8 2.7-7.7 3.7-11.8 1-4.1 1.8-8.4 1.8-13.2l.2-29.5-14.7 25.9-.5.8-.6 1c-.4.6-.8 1.3-1.3 2l-2.7 3.9c-1.9 2.6-4 5-6.1 7.4-4.3 4.8-9.1 9.2-14.2 13.2-10.2 8-21.7 14.3-34 18.6-12.3 4.4-25.3 6.7-38.5 7.4-3.3.1-6.6.2-9.9.2-3.3 0-6.6-.2-9.9-.4l18.3-10.9 23.4-14-27.2 1.5c-1.7.1-3.7.2-5.6.2-1.9.1-3.8.1-5.7.1-3.8 0-7.6 0-11.4-.1-3.8-.1-7.6-.3-11.4-.5-1.9-.1-3.8-.2-5.7-.4-1.9-.1-3.8-.3-5.7-.5l-5.7-.6-5.6-.7c-1.9-.2-3.7-.6-5.6-.8-1.9-.3-3.7-.6-5.6-.9l-5.6-1.1c-.9-.2-1.9-.4-2.8-.6 2.5-1.5 5-3.1 7.5-4.6 6.5-4.2 12.9-8.5 19.2-13 12.5-9.1 24.5-18.9 35.6-29.9 5.5-5.5 10.8-11.2 15.7-17.3 4.9-6.1 9.4-12.5 13.3-19.5.4-.7.8-1.4 1.2-2.2-.6.3-1.3.6-1.9.9-3.2 1.3-6.5 2-9.6 1.8-3 4.6-6.4 8.9-10 13.2-4.8 5.7-10 11-15.4 16.1-10.9 10.2-22.8 19.4-35.2 28-6.2 4.3-12.5 8.4-18.9 12.3-6.4 3.9-13 7.7-19.5 11.1l-12.8 6.7 13.8 4.1 5.7 1.7c1.9.6 3.8 1.1 5.8 1.6 1.9.5 3.9 1 5.8 1.4l5.8 1.2c1.9.4 3.9.7 5.8 1.1 2 .3 3.9.7 5.9 1l5.9.9 5.9.7c2 .3 3.9.4 5.9.6 2 .2 3.9.4 5.9.5 3.6.3 7.1.5 10.7.7l-14.9 8.6-16.5 9.6 18.8 3.2 5.3.9 5.3.8c3.5.5 7.1.9 10.7 1.1 3.6.3 7.2.5 10.7.6 3.6.1 7.2 0 10.8-.1 14.4-.6 28.9-3 42.7-7.7 13.8-4.7 26.9-11.6 38.5-20.7 1.7-1.3 3.3-2.7 4.9-4-.3.7-.7 1.4-1 2.1l-1.2 2.5-1.2 2.3-9 17.1 18.2-6c2.9-1 5.9-2 8.7-3.1 2.9-1.1 5.7-2.4 8.5-3.7 5.6-2.7 11-5.9 16.1-9.5 10.2-7.1 19.3-16 26.6-26 7.4-10 13.2-21.1 17.5-32.6 1-2.7 1.9-5.5 2.8-8.3.3 2.4.5 4.9.5 7.3.1 5.7-.4 11.5-1.4 17.3-.5 2.9-1.1 5.7-1.9 8.6l-1.2 4.2-.7 2c-.2.6-.5 1.4-.7 1.9l-6.5 16.8 16.5-6.8c5.7-2.4 11.2-5.2 16.5-8.4 5.2-3.3 10.2-7.1 14.8-11.3 9.2-8.4 16.6-18.5 22.2-29.4 5.6-10.9 9.5-22.5 12-34.3 1.2-5.9 2.1-11.8 2.7-17.8.1-1.6.3-3.2.4-4.7l.6.3c4.4 2.2 9 3.8 13.7 4.9 4.7 1.1 9.6 1.6 14.4 1.6 2.4 0 4.8-.1 7.2-.4 1.2-.1 2.4-.3 3.6-.5l1.8-.3c.7-.1 1.2-.2 2-.5l12.4-3.3-8.6-8.2z"/><metadata><rdf:RDF xmlns:rdf="http://www.w3.org/1999/02/22-rdf-syntax-ns#" xmlns:rdfs="http://www.w3.org/2000/01/rdf-schema#" xmlns:dc="http://purl.org/dc/elements/1.1/"><rdf:Description about="https://iconscout.com/legal#licenses" dc:publisher="Iconscout" dc:date="2018-02-22" dc:format="image/svg+xml" dc:language="en"><dc:creator><rdf:Bag><rdf:li>Pro Symbols</rdf:li></rdf:Bag></dc:creator></rdf:Description></rdf:RDF></metadata></svg>